<svg id="Ebene_1" data-name="Ebene 1" xmlns="http://www.w3.org/2000/svg" viewBox="0 0 416.88 524.44"><defs><style>.cls-1{fill:#ccc;}.cls-2{fill:#00234e;}.cls-3{fill:#2a78ff;}</style></defs><polyline class="cls-1" points="0.32 62.98 178.27 129 362.32 64 178.27 0"/><path class="cls-2" d="M686.68,296.11,865,361v80l-75.54-28.38v74.95l64.21,23.37v75.2l-64.21-23.37v86.91l75.44,27.46v79.1L686.68,691.38Z" transform="translate(-686.68 -232)"/><path class="cls-1" d="M1006,311c18.12-3.18,62.79-.55,66,2,.1.08-4.19-5.73-5-7l-5-4-5-3-4-2-4.13-1.06" transform="translate(-686.68 -232)"/><path class="cls-3" d="M864.3,361.17l102.54-37.32q48.58-17.69,73.61-19.23t40.41,15.92q15.38,17.46,15.38,68.69,0,34.65-10.87,52.26t-42.84,36.58q35.64-4.92,48.34,9.15t12.69,52.67v36.64q0,40.07-9.15,62.69a83.07,83.07,0,0,1-29.18,37q-20,14.37-82,36.94L864.3,756.44Zm102.79,30.22v87.89q6.58-2.64,10.25-4,15.13-5.51,19.29-14.46t4.15-44.12q0-18.54-3.42-24.75t-8.91-6.16Q983,385.85,967.09,391.39Zm0,149.41V651.4q21.72-8.64,27.71-16.92t6-32.21V565.41q0-25.39-5.37-28.81T967.09,540.8Z" transform="translate(-686.68 -232)"/></svg>